<?xml version="1.0" encoding="UTF-8" standalone="no"?>
<svg
   version="1.1"
   viewBox="0 0 137 200"
   id="svg1"
   sodipodi:docname="ai_sparkle.svg"
   inkscape:version="1.3 (0e150ed, 2023-07-21)"
   width="137"
   height="200"
   xmlns:inkscape="http://www.inkscape.org/namespaces/inkscape"
   xmlns:sodipodi="http://sodipodi.sourceforge.net/DTD/sodipodi-0.dtd"
   xmlns="http://www.w3.org/2000/svg"
   xmlns:svg="http://www.w3.org/2000/svg">
  <defs
     id="defs1" />
  <sodipodi:namedview
     id="namedview1"
     pagecolor="#ffffff"
     bordercolor="#000000"
     borderopacity="0.25"
     inkscape:showpageshadow="2"
     inkscape:pageopacity="0.0"
     inkscape:pagecheckerboard="0"
     inkscape:deskcolor="#d1d1d1"
     inkscape:zoom="1.3457031"
     inkscape:cx="238.90856"
     inkscape:cy="255.62845"
     inkscape:window-width="2560"
     inkscape:window-height="1387"
     inkscape:window-x="0"
     inkscape:window-y="819"
     inkscape:window-maximized="0"
     inkscape:current-layer="svg1" />
  <path
     fill="#ffffff"
     d="m 62.38525,48.148683 q -10.441762,5.368158 -14.648673,16.183784 -0.4966,1.274541 -1.085719,3.336454 -1.36517,4.771489 -2.870068,10.077335 c -0.322884,1.140481 -1.365176,1.795684 -2.530198,1.476575 -0.789265,-0.215253 -1.217887,-0.804369 -1.431251,-1.546435 Q 38.314442,72.442297 37.060674,67.967256 36.56785,66.203676 35.946632,64.511845 33.726107,58.45827 28.948954,53.667896 23.58457,48.290296 15.614466,46.003683 10.716469,44.596968 5.7467192,43.207252 4.6458972,42.899479 4.2644809,42.578483 C 3.0239311,41.532418 3.4525533,39.568686 5.0273145,39.111741 q 5.0131765,-1.453914 9.7978835,-2.794539 1.863657,-0.521143 3.406317,-1.087607 C 26.328128,32.26134 32.670604,25.969851 35.839006,17.905336 q 0.564571,-1.435032 1.138585,-3.485622 1.401049,-5.0075122 2.845524,-9.9980327 c 0.455058,-1.5728725 2.547184,-1.9958306 3.576257,-0.7477289 q 0.307778,0.3738644 0.468276,0.9441019 1.514335,5.3889307 3.051332,10.7004437 c 2.632154,9.087922 9.295622,16.416038 18.113529,19.77326 q 1.521892,0.579676 3.447863,1.121593 5.141576,1.45014 10.096217,2.877622 c 1.506781,0.434285 2.007163,2.280947 0.902562,3.377991 q -0.392743,0.390861 -1.057393,0.57779 -5.766574,1.621967 -11.631333,3.340234 -2.275284,0.666538 -4.405175,1.761695 z"
     id="path1"
     style="stroke-width:0.188821" />
  <path
     fill="#ffffff"
     d="m 124.01484,76.692072 q -5.86002,3.012659 -8.221,9.082497 -0.27868,0.715285 -0.60931,1.87245 -0.76614,2.677817 -1.61071,5.655509 c -0.1812,0.640044 -0.76616,1.007746 -1.41997,0.828665 -0.44295,-0.120804 -0.68349,-0.451422 -0.80322,-0.867877 q -0.84458,-2.937425 -1.54821,-5.448867 -0.27657,-0.989735 -0.62521,-1.939204 -1.24617,-3.397337 -3.92717,-6.08574 -3.01054,-3.017957 -7.483448,-4.301234 -2.748813,-0.789463 -5.537884,-1.569383 -0.617788,-0.172725 -0.831842,-0.352872 C 90.700653,72.978953 90.9412,71.876888 91.824975,71.620445 q 2.813435,-0.815951 5.498661,-1.568324 1.045927,-0.29247 1.911671,-0.610376 c 4.543913,-1.665815 8.103373,-5.196663 9.881513,-9.722549 q 0.31682,-0.805357 0.63899,-1.956167 0.78626,-2.810268 1.59692,-5.610998 c 0.25539,-0.882714 1.42952,-1.120081 2.00705,-0.419634 q 0.17271,0.209818 0.26279,0.52984 0.84986,3.024324 1.71243,6.005198 c 1.4772,5.100233 5.21681,9.212847 10.16551,11.096957 q 0.85409,0.325317 1.93498,0.629447 2.88549,0.813833 5.6661,1.614951 c 0.84562,0.243725 1.12643,1.280091 0.50651,1.895763 q -0.2204,0.219355 -0.59341,0.324261 -3.23626,0.910269 -6.52762,1.874577 -1.27692,0.374063 -2.47223,0.988681 z"
     id="path1-83"
     style="stroke-width:0.105968" />
  <path
     fill="#ffffff"
     d="m 95.062098,152.78997 q -15.40271,7.9186 -21.608361,23.87281 -0.732534,1.88007 -1.601548,4.92163 -2.013769,7.03844 -4.233666,14.86513 c -0.476283,1.68234 -2.013769,2.64884 -3.732311,2.17812 -1.164251,-0.31751 -1.796513,-1.18653 -2.111236,-2.28117 q -2.219893,-7.72084 -4.069337,-14.32201 -0.726963,-2.60147 -1.643328,-5.09712 -3.275517,-8.92965 -10.322328,-15.99597 -7.913036,-7.93253 -19.669793,-11.30552 -7.225071,-2.07505 -14.555983,-4.12507 -1.6238308,-0.45397 -2.1864616,-0.92748 c -1.829943,-1.54305 -1.1976796,-4.43976 1.1252616,-5.11381 q 7.394973,-2.14468 14.452928,-4.12224 2.749091,-0.76876 5.024682,-1.60433 c 11.943371,-4.37851 21.299204,-13.65913 25.972929,-25.55515 q 0.832806,-2.11683 1.679538,-5.14166 2.06669,-7.386617 4.197453,-14.748172 c 0.671257,-2.320156 3.75736,-2.944062 5.275367,-1.102985 q 0.454001,0.551498 0.690758,1.39266 2.23381,7.94924 4.501044,15.784297 c 3.8827,13.40566 13.712033,24.2154 26.719373,29.16769 q 2.244971,0.85507 5.085991,1.65445 7.58438,2.13912 14.893,4.24482 c 2.22266,0.6406 2.96078,3.36463 1.33137,4.98289 q -0.57933,0.57656 -1.55977,0.85229 -8.50632,2.39258 -17.15745,4.9272 -3.356309,0.98321 -6.498122,2.5987 z"
     id="path1-8"
     style="stroke-width:0.278529" />
</svg>
